<?xml version="1.0" standalone="no"?>
<!DOCTYPE svg PUBLIC "-//W3C//DTD SVG 20010904//EN"
 "http://www.w3.org/TR/2001/REC-SVG-20010904/DTD/svg10.dtd">
<svg version="1.0" xmlns="http://www.w3.org/2000/svg"
 width="557.000000pt" height="303.000000pt" viewBox="0 0 557.000000 303.000000"
 preserveAspectRatio="xMidYMid meet">

<g transform="translate(0.000000,303.000000) scale(0.100000,-0.100000)"
fill="#000000" stroke="none">
<path d="M0 1515 l0 -1515 2785 0 2785 0 0 1515 0 1515 -2785 0 -2785 0 0
-1515z m2090 505 c0 -11 -7 -20 -15 -20 -8 0 -15 -7 -15 -15 0 -8 -9 -15 -20
-15 -27 0 -26 -26 1 -33 24 -6 21 -30 -4 -35 -10 -2 -17 3 -17 12 0 9 -8 16
-20 16 -13 0 -20 7 -20 20 0 12 7 20 16 20 9 0 18 9 21 20 3 11 10 17 15 14 5
-3 12 3 15 15 7 28 43 28 43 1z m480 4 c0 -9 -9 -18 -20 -21 -11 -3 -20 -11
-20 -18 0 -7 -9 -15 -20 -18 -13 -3 -18 -11 -14 -20 3 -9 12 -13 21 -10 11 4
14 1 11 -13 -4 -22 -38 -32 -38 -11 0 8 -8 17 -18 19 -21 6 -25 38 -5 38 7 0
16 6 19 14 3 8 14 16 25 19 10 3 19 12 19 21 0 9 8 16 20 16 12 0 20 -7 20
-16z m493 -5 c3 -12 10 -18 17 -14 7 4 14 -2 17 -14 3 -12 13 -21 25 -21 27 0
19 -33 -10 -40 -13 -3 -23 -9 -23 -15 1 -14 -32 -12 -36 2 -3 7 7 17 21 23 33
12 33 18 0 30 -14 6 -23 14 -20 19 3 5 -3 11 -14 14 -25 7 -26 37 -1 37 11 0
21 -9 24 -21z m420 1 c-3 -11 -12 -20 -19 -20 -8 0 -14 -7 -14 -15 0 -9 -9
-15 -21 -15 -13 0 -19 5 -17 16 2 8 7 14 13 14 5 -1 12 8 17 19 10 28 48 29
41 1z m-1313 -36 c0 -9 9 -18 20 -21 23 -6 23 -40 1 -35 -7 1 -15 -7 -18 -18
-3 -12 -12 -20 -22 -18 -24 5 -25 35 -1 41 25 6 26 23 2 29 -10 3 -19 13 -19
22 0 9 8 16 19 16 10 0 18 -7 18 -16z m810 -4 c0 -13 -7 -20 -20 -20 -26 0
-26 -20 -1 -27 25 -6 35 -32 16 -39 -18 -7 -35 3 -35 20 0 8 -9 16 -21 19 -22
6 -21 34 1 29 6 -1 14 7 17 18 7 27 43 27 43 0z m586 4 c-4 -11 1 -18 14 -21
11 -3 20 -14 20 -24 0 -13 -5 -16 -16 -12 -10 4 -17 -2 -21 -16 -7 -26 -36
-24 -41 2 -2 12 3 17 17 17 12 0 21 6 21 15 0 8 -6 15 -14 15 -7 0 -16 9 -19
20 -4 16 0 20 20 20 19 0 24 -4 19 -16z m-876 -35 c0 -6 -9 -13 -19 -16 -11
-3 -21 -13 -24 -24 -7 -25 -37 -25 -37 0 0 11 9 21 21 24 12 3 18 10 14 16 -4
7 4 11 19 11 14 0 26 -5 26 -11z m760 -29 c0 -13 -7 -20 -20 -20 -13 0 -20 7
-20 20 0 13 7 20 20 20 13 0 20 -7 20 -20z m-1210 -76 c0 -11 8 -15 28 -12
l27 3 0 -110 0 -110 -45 0 c-33 0 -45 -4 -45 -15 -1 -8 -7 -14 -14 -12 -7 1
-15 -7 -18 -18 -5 -18 -13 -20 -89 -20 -68 0 -84 3 -84 15 0 8 -6 15 -14 15
-7 0 -16 9 -19 21 -3 12 -10 18 -16 14 -8 -4 -11 33 -11 119 l0 126 150 0
c130 0 150 -2 150 -16z m470 0 c0 -11 8 -15 28 -12 l27 3 0 -109 0 -109 -45
-1 c-32 -1 -45 -5 -45 -16 -1 -8 -7 -14 -14 -12 -7 1 -15 -7 -18 -18 -5 -18
-13 -20 -88 -20 -76 0 -83 2 -88 21 -3 12 -10 18 -15 15 -5 -3 -12 4 -15 15
-3 12 -10 18 -16 15 -6 -4 -11 38 -13 119 l-3 125 153 0 c131 0 152 -2 152
-16z m464 1 c3 -8 17 -15 31 -15 l26 0 -3 -107 -3 -108 -45 0 c-33 0 -45 -4
-45 -15 0 -8 -7 -15 -15 -15 -8 0 -15 -7 -15 -15 0 -12 -16 -15 -85 -15 -69 0
-85 3 -85 15 0 8 -7 15 -15 15 -8 1 -14 6 -12 13 1 7 -2 13 -8 13 -5 1 -16 2
-22 3 -10 1 -13 33 -13 124 l-1 122 152 0 c126 0 153 -3 158 -15z m460 -1 c3
-9 15 -14 27 -12 20 3 20 -1 20 -107 l1 -110 -44 0 c-33 0 -44 -4 -46 -18 -2
-9 -8 -14 -13 -11 -6 3 -13 -3 -16 -15 -5 -19 -12 -21 -85 -21 -71 0 -80 2
-85 20 -3 11 -9 17 -14 14 -5 -3 -12 1 -15 9 -3 8 -14 17 -25 20 -17 5 -19 15
-19 126 l0 121 154 0 c130 0 155 -2 160 -16z"/>
<path d="M2005 1820 c-8 -14 3 -30 21 -30 8 0 14 -7 14 -16 0 -9 5 -14 12 -12
18 6 22 28 5 28 -8 0 -17 9 -20 20 -5 21 -22 26 -32 10z"/>
<path d="M2140 1810 c0 -11 -7 -20 -15 -20 -8 0 -15 -7 -15 -15 0 -8 3 -15 8
-15 14 1 53 50 47 60 -10 17 -25 11 -25 -10z"/>
<path d="M2240 1719 c0 -60 3 -80 13 -77 8 3 13 31 15 81 2 64 0 77 -13 77
-12 0 -15 -15 -15 -81z"/>
<path d="M1975 1730 c-2 -3 -3 -22 -3 -42 l0 -38 114 0 114 0 0 43 0 42 -111
0 c-61 0 -112 -2 -114 -5z"/>
<path d="M2710 1719 c0 -60 3 -80 13 -77 8 3 13 31 15 81 2 64 0 77 -13 77
-12 0 -15 -15 -15 -81z"/>
<path d="M2503 1778 c2 -7 10 -13 17 -13 7 0 15 6 18 13 2 7 -5 12 -18 12 -13
0 -20 -5 -17 -12z"/>
<path d="M2580 1774 c0 -9 5 -14 12 -12 18 6 21 28 4 28 -9 0 -16 -7 -16 -16z"/>
<path d="M2503 1708 c5 -17 99 -17 105 0 3 9 -12 12 -53 12 -41 0 -56 -3 -52
-12z"/>
<path d="M3170 1726 c0 -41 5 -78 10 -81 6 -4 10 23 10 74 0 47 -4 81 -10 81
-6 0 -10 -31 -10 -74z"/>
<path d="M2963 1778 c2 -7 10 -13 17 -13 7 0 15 6 18 13 2 7 -5 12 -18 12 -13
0 -20 -5 -17 -12z"/>
<path d="M3032 1778 c7 -19 38 -22 38 -4 0 10 -9 16 -21 16 -12 0 -19 -5 -17
-12z"/>
<path d="M3003 1708 c2 -7 10 -13 17 -13 7 0 15 6 18 13 2 7 -5 12 -18 12 -13
0 -20 -5 -17 -12z"/>
<path d="M3630 1726 c0 -41 5 -78 10 -81 6 -4 10 23 10 74 0 47 -4 81 -10 81
-6 0 -10 -31 -10 -74z"/>
<path d="M3422 1778 c5 -15 28 -18 29 -3 0 6 -7 12 -17 13 -10 3 -15 -1 -12
-10z"/>
<path d="M3492 1778 c7 -19 38 -22 38 -4 0 10 -9 16 -21 16 -12 0 -19 -5 -17
-12z"/>
<path d="M3390 1710 c0 -6 7 -13 15 -16 8 -4 15 -12 15 -20 0 -10 15 -14 55
-14 42 0 55 3 55 15 0 11 -12 15 -50 15 -36 0 -52 4 -56 15 -7 17 -34 21 -34
5z"/>
<path d="M3532 1708 c6 -18 28 -21 28 -4 0 9 -7 16 -16 16 -9 0 -14 -5 -12
-12z"/>
</g>
</svg>
